<mxfile host="app.diagrams.net" agent="Mozilla/5.0 (Windows NT 10.0; Win64; x64) AppleWebKit/537.36 (KHTML, like Gecko) Chrome/131.0.0.0 Safari/537.36" version="24.8.6">
  <diagram name="Page-1" id="a9BzZhUmdDYLlZGaoM-b">
    <mxGraphModel dx="974" dy="483" grid="1" gridSize="10" guides="1" tooltips="1" connect="1" arrows="1" fold="1" page="1" pageScale="1" pageWidth="850" pageHeight="1100" math="0" shadow="0">
      <root>
        <mxCell id="0" />
        <mxCell id="1" parent="0" />
        <mxCell id="LfSlcwiVAPx2adZLLw5k-12" style="edgeStyle=orthogonalEdgeStyle;rounded=0;orthogonalLoop=1;jettySize=auto;html=1;exitX=1;exitY=0.5;exitDx=0;exitDy=0;entryX=0;entryY=0.75;entryDx=0;entryDy=0;" edge="1" parent="1" source="LfSlcwiVAPx2adZLLw5k-1" target="LfSlcwiVAPx2adZLLw5k-4">
          <mxGeometry relative="1" as="geometry">
            <Array as="points">
              <mxPoint x="170" y="80" />
              <mxPoint x="170" y="153" />
            </Array>
          </mxGeometry>
        </mxCell>
        <mxCell id="LfSlcwiVAPx2adZLLw5k-1" value="Original image&lt;br&gt;(reference image)" style="shape=parallelogram;perimeter=parallelogramPerimeter;whiteSpace=wrap;html=1;fixedSize=1;" vertex="1" parent="1">
          <mxGeometry x="50" y="60" width="120" height="40" as="geometry" />
        </mxCell>
        <mxCell id="LfSlcwiVAPx2adZLLw5k-11" style="edgeStyle=orthogonalEdgeStyle;rounded=0;orthogonalLoop=1;jettySize=auto;html=1;exitX=1;exitY=0.5;exitDx=0;exitDy=0;entryX=0;entryY=0.25;entryDx=0;entryDy=0;" edge="1" parent="1" source="LfSlcwiVAPx2adZLLw5k-2" target="LfSlcwiVAPx2adZLLw5k-4">
          <mxGeometry relative="1" as="geometry">
            <Array as="points">
              <mxPoint x="180" y="30" />
              <mxPoint x="180" y="128" />
            </Array>
          </mxGeometry>
        </mxCell>
        <mxCell id="LfSlcwiVAPx2adZLLw5k-2" value="Enhanced image" style="shape=parallelogram;perimeter=parallelogramPerimeter;whiteSpace=wrap;html=1;fixedSize=1;" vertex="1" parent="1">
          <mxGeometry x="50" y="10" width="120" height="40" as="geometry" />
        </mxCell>
        <mxCell id="LfSlcwiVAPx2adZLLw5k-8" style="edgeStyle=orthogonalEdgeStyle;rounded=0;orthogonalLoop=1;jettySize=auto;html=1;exitX=1;exitY=0.5;exitDx=0;exitDy=0;entryX=0;entryY=0.5;entryDx=0;entryDy=0;" edge="1" parent="1" source="LfSlcwiVAPx2adZLLw5k-3" target="LfSlcwiVAPx2adZLLw5k-4">
          <mxGeometry relative="1" as="geometry" />
        </mxCell>
        <mxCell id="LfSlcwiVAPx2adZLLw5k-3" value="&lt;b&gt;&lt;font style=&quot;font-size: 16px;&quot;&gt;Start&lt;/font&gt;&lt;/b&gt;" style="rounded=1;whiteSpace=wrap;html=1;" vertex="1" parent="1">
          <mxGeometry x="90" y="120" width="60" height="40" as="geometry" />
        </mxCell>
        <mxCell id="LfSlcwiVAPx2adZLLw5k-9" style="edgeStyle=orthogonalEdgeStyle;rounded=0;orthogonalLoop=1;jettySize=auto;html=1;exitX=1;exitY=0.5;exitDx=0;exitDy=0;entryX=0;entryY=0.5;entryDx=0;entryDy=0;" edge="1" parent="1" source="LfSlcwiVAPx2adZLLw5k-4" target="LfSlcwiVAPx2adZLLw5k-5">
          <mxGeometry relative="1" as="geometry" />
        </mxCell>
        <mxCell id="LfSlcwiVAPx2adZLLw5k-4" value="Images are converted into grayscale" style="rounded=0;whiteSpace=wrap;html=1;" vertex="1" parent="1">
          <mxGeometry x="200" y="115" width="140" height="50" as="geometry" />
        </mxCell>
        <mxCell id="LfSlcwiVAPx2adZLLw5k-10" style="edgeStyle=orthogonalEdgeStyle;rounded=0;orthogonalLoop=1;jettySize=auto;html=1;exitX=1;exitY=0.5;exitDx=0;exitDy=0;entryX=0;entryY=0.5;entryDx=0;entryDy=0;" edge="1" parent="1" source="LfSlcwiVAPx2adZLLw5k-5" target="LfSlcwiVAPx2adZLLw5k-6">
          <mxGeometry relative="1" as="geometry" />
        </mxCell>
        <mxCell id="LfSlcwiVAPx2adZLLw5k-5" value="Mean of pixelvalues are found" style="whiteSpace=wrap;html=1;rounded=0;" vertex="1" parent="1">
          <mxGeometry x="370" y="115" width="120" height="50" as="geometry" />
        </mxCell>
        <mxCell id="LfSlcwiVAPx2adZLLw5k-13" style="edgeStyle=orthogonalEdgeStyle;rounded=0;orthogonalLoop=1;jettySize=auto;html=1;exitX=1;exitY=0.5;exitDx=0;exitDy=0;entryX=0;entryY=0.5;entryDx=0;entryDy=0;" edge="1" parent="1" source="LfSlcwiVAPx2adZLLw5k-6" target="LfSlcwiVAPx2adZLLw5k-7">
          <mxGeometry relative="1" as="geometry" />
        </mxCell>
        <mxCell id="LfSlcwiVAPx2adZLLw5k-6" value="Mean of enhanced picture is subtracted from the mean of the reference picture" style="whiteSpace=wrap;html=1;rounded=0;" vertex="1" parent="1">
          <mxGeometry x="520" y="105" width="130" height="70" as="geometry" />
        </mxCell>
        <mxCell id="LfSlcwiVAPx2adZLLw5k-7" value="Print outputs" style="shape=parallelogram;perimeter=parallelogramPerimeter;whiteSpace=wrap;html=1;fixedSize=1;" vertex="1" parent="1">
          <mxGeometry x="680" y="120" width="120" height="40" as="geometry" />
        </mxCell>
      </root>
    </mxGraphModel>
  </diagram>
</mxfile>
